
<global>
amp_veltrack=0
ampeg_release=0.50
xf_cccurve=gain
xfin_hicc1=127
xfout_hicc1=127
xfout_locc1=127
</global>

<group>
group_label=RR1
seq_length=4
seq_position=1

<region>
hikey=G#2
hivel=45
lokey=G2
lovel=0
pitch_keycenter=G#2
sample=Contrabassoon_accent_stacc_PP_G#3_RR1.opus
</region>

<region>
hikey=G#1
hivel=45
lokey=G1
lovel=0
pitch_keycenter=G#1
sample=Contrabassoon_accent_stacc_PP_G#2_RR1.opus
</region>

<region>
hikey=F#2
hivel=45
lokey=F2
lovel=0
pitch_keycenter=F#2
sample=Contrabassoon_accent_stacc_PP_F#3_RR1.opus
</region>

<region>
hikey=F#1
hivel=45
lokey=F1
lovel=0
pitch_keycenter=F#1
sample=Contrabassoon_accent_stacc_PP_F#2_RR1.opus
</region>

<region>
hikey=E2
hivel=45
lokey=D#2
lovel=0
pitch_keycenter=E2
sample=Contrabassoon_accent_stacc_PP_E3_RR1.opus
</region>

<region>
hikey=E1
hivel=45
lokey=D#1
lovel=0
pitch_keycenter=E1
sample=Contrabassoon_accent_stacc_PP_E2_RR1.opus
</region>

<region>
hikey=D#4
hivel=45
lokey=C#3
lovel=0
pitch_keycenter=D3
sample=Contrabassoon_accent_stacc_PP_D4_RR1.opus
</region>

<region>
hikey=D2
hivel=45
lokey=C#2
lovel=0
pitch_keycenter=D2
sample=Contrabassoon_accent_stacc_PP_D3_RR1.opus
</region>

<region>
hikey=D1
hivel=45
lokey=C#1
lovel=0
pitch_keycenter=D1
sample=Contrabassoon_accent_stacc_PP_D2_RR1.opus
</region>

<region>
hikey=C3
hivel=45
lokey=B2
lovel=0
pitch_keycenter=C3
sample=Contrabassoon_accent_stacc_PP_C4_RR1.opus
</region>

<region>
hikey=C2
hivel=45
lokey=B1
lovel=0
pitch_keycenter=C2
sample=Contrabassoon_accent_stacc_PP_C3_RR1.opus
</region>

<region>
hikey=C1
hivel=45
lokey=B0
lovel=0
pitch_keycenter=C1
sample=Contrabassoon_accent_stacc_PP_C2_RR1.opus
</region>

<region>
hikey=A#2
hivel=45
lokey=A2
lovel=0
pitch_keycenter=A#2
sample=Contrabassoon_accent_stacc_PP_A#3_RR1.opus
</region>

<region>
hikey=A#1
hivel=45
lokey=A1
lovel=0
pitch_keycenter=A#1
sample=Contrabassoon_accent_stacc_PP_A#2_RR1.opus
</region>

<region>
hikey=A#0
hivel=45
lokey=A0
lovel=0
pitch_keycenter=A#0
sample=Contrabassoon_accent_stacc_PP_A#1_RR1.opus
</region>

<region>
hikey=G#2
hivel=90
lokey=G2
lovel=46
pitch_keycenter=G#2
sample=Contrabassoon_accent_stacc_MF_G#3_RR1.opus
</region>

<region>
hikey=G#1
hivel=90
lokey=G1
lovel=46
pitch_keycenter=G#1
sample=Contrabassoon_accent_stacc_MF_G#2_RR1.opus
</region>

<region>
hikey=F#2
hivel=90
lokey=F2
lovel=46
pitch_keycenter=F#2
sample=Contrabassoon_accent_stacc_MF_F#3_RR1.opus
</region>

<region>
hikey=F#1
hivel=90
lokey=F1
lovel=46
pitch_keycenter=F#1
sample=Contrabassoon_accent_stacc_MF_F#2_RR1.opus
</region>

<region>
hikey=E2
hivel=90
lokey=D#2
lovel=46
pitch_keycenter=E2
sample=Contrabassoon_accent_stacc_MF_E3_RR1.opus
</region>

<region>
hikey=E1
hivel=90
lokey=D#1
lovel=46
pitch_keycenter=E1
sample=Contrabassoon_accent_stacc_MF_E2_RR1.opus
</region>

<region>
hikey=D#4
hivel=90
lokey=C#3
lovel=46
pitch_keycenter=D3
sample=Contrabassoon_accent_stacc_MF_D4_RR1.opus
</region>

<region>
hikey=D2
hivel=90
lokey=C#2
lovel=46
pitch_keycenter=D2
sample=Contrabassoon_accent_stacc_MF_D3_RR1.opus
</region>

<region>
hikey=D1
hivel=90
lokey=C#1
lovel=46
pitch_keycenter=D1
sample=Contrabassoon_accent_stacc_MF_D2_RR1.opus
</region>

<region>
hikey=C3
hivel=90
lokey=B2
lovel=46
pitch_keycenter=C3
sample=Contrabassoon_accent_stacc_MF_C4_RR1.opus
</region>

<region>
hikey=C2
hivel=90
lokey=B1
lovel=46
pitch_keycenter=C2
sample=Contrabassoon_accent_stacc_MF_C3_RR1.opus
</region>

<region>
hikey=C1
hivel=90
lokey=B0
lovel=46
pitch_keycenter=C1
sample=Contrabassoon_accent_stacc_MF_C2_RR1.opus
</region>

<region>
hikey=A#2
hivel=90
lokey=A2
lovel=46
pitch_keycenter=A#2
sample=Contrabassoon_accent_stacc_MF_A#3_RR1.opus
</region>

<region>
hikey=A#1
hivel=90
lokey=A1
lovel=46
pitch_keycenter=A#1
sample=Contrabassoon_accent_stacc_MF_A#2_RR1.opus
</region>

<region>
hikey=A#0
hivel=90
lokey=A0
lovel=46
pitch_keycenter=A#0
sample=Contrabassoon_accent_stacc_MF_A#1_RR1.opus
</region>

<region>
hikey=G#2
hivel=127
lokey=G2
lovel=91
pitch_keycenter=G#2
sample=Contrabassoon_accent_stacc_FF_G#3_RR1.opus
</region>

<region>
hikey=G#1
hivel=127
lokey=G1
lovel=91
pitch_keycenter=G#1
sample=Contrabassoon_accent_stacc_FF_G#2_RR1.opus
</region>

<region>
hikey=F#2
hivel=127
lokey=F2
lovel=91
pitch_keycenter=F#2
sample=Contrabassoon_accent_stacc_FF_F#3_RR1.opus
</region>

<region>
hikey=F#1
hivel=127
lokey=F1
lovel=91
pitch_keycenter=F#1
sample=Contrabassoon_accent_stacc_FF_F#2_RR1.opus
</region>

<region>
hikey=E2
hivel=127
lokey=D#2
lovel=91
pitch_keycenter=E2
sample=Contrabassoon_accent_stacc_FF_E3_RR1.opus
</region>

<region>
hikey=E1
hivel=127
lokey=D#1
lovel=91
pitch_keycenter=E1
sample=Contrabassoon_accent_stacc_FF_E2_RR1.opus
</region>

<region>
hikey=D#4
hivel=127
lokey=C#3
lovel=91
pitch_keycenter=D3
sample=Contrabassoon_accent_stacc_FF_D4_RR1.opus
</region>

<region>
hikey=D2
hivel=127
lokey=C#2
lovel=91
pitch_keycenter=D2
sample=Contrabassoon_accent_stacc_FF_D3_RR1.opus
</region>

<region>
hikey=D1
hivel=127
lokey=C#1
lovel=91
pitch_keycenter=D1
sample=Contrabassoon_accent_stacc_FF_D2_RR1.opus
</region>

<region>
hikey=C3
hivel=127
lokey=B2
lovel=91
pitch_keycenter=C3
sample=Contrabassoon_accent_stacc_FF_C4_RR1.opus
</region>

<region>
hikey=C2
hivel=127
lokey=B1
lovel=91
pitch_keycenter=C2
sample=Contrabassoon_accent_stacc_FF_C3_RR1.opus
</region>

<region>
hikey=C1
hivel=127
lokey=B0
lovel=91
pitch_keycenter=C1
sample=Contrabassoon_accent_stacc_FF_C2_RR1.opus
</region>

<region>
hikey=A#2
hivel=127
lokey=A2
lovel=91
pitch_keycenter=A#2
sample=Contrabassoon_accent_stacc_FF_A#3_RR1.opus
</region>

<region>
hikey=A#1
hivel=127
lokey=A1
lovel=91
pitch_keycenter=A#1
sample=Contrabassoon_accent_stacc_FF_A#2_RR1.opus
</region>

<region>
hikey=A#0
hivel=127
lokey=A0
lovel=91
pitch_keycenter=A#0
sample=Contrabassoon_accent_stacc_FF_A#1_RR1.opus
</region>
</group>

<group>
group_label=RR2
seq_length=4
seq_position=2

<region>
hikey=G#2
hivel=45
lokey=G2
lovel=0
pitch_keycenter=G#2
sample=Contrabassoon_accent_stacc_PP_G#3_RR2.opus
</region>

<region>
hikey=G#1
hivel=45
lokey=G1
lovel=0
pitch_keycenter=G#1
sample=Contrabassoon_accent_stacc_PP_G#2_RR2.opus
</region>

<region>
hikey=F#2
hivel=45
lokey=F2
lovel=0
pitch_keycenter=F#2
sample=Contrabassoon_accent_stacc_PP_F#3_RR2.opus
</region>

<region>
hikey=F#1
hivel=45
lokey=F1
lovel=0
pitch_keycenter=F#1
sample=Contrabassoon_accent_stacc_PP_F#2_RR2.opus
</region>

<region>
hikey=E2
hivel=45
lokey=D#2
lovel=0
pitch_keycenter=E2
sample=Contrabassoon_accent_stacc_PP_E3_RR2.opus
</region>

<region>
hikey=E1
hivel=45
lokey=D#1
lovel=0
pitch_keycenter=E1
sample=Contrabassoon_accent_stacc_PP_E2_RR2.opus
</region>

<region>
hikey=D#4
hivel=45
lokey=C#3
lovel=0
pitch_keycenter=D3
sample=Contrabassoon_accent_stacc_PP_D4_RR2.opus
</region>

<region>
hikey=D2
hivel=45
lokey=C#2
lovel=0
pitch_keycenter=D2
sample=Contrabassoon_accent_stacc_PP_D3_RR2.opus
</region>

<region>
hikey=D1
hivel=45
lokey=C#1
lovel=0
pitch_keycenter=D1
sample=Contrabassoon_accent_stacc_PP_D2_RR2.opus
</region>

<region>
hikey=C3
hivel=45
lokey=B2
lovel=0
pitch_keycenter=C3
sample=Contrabassoon_accent_stacc_PP_C4_RR2.opus
</region>

<region>
hikey=C2
hivel=45
lokey=B1
lovel=0
pitch_keycenter=C2
sample=Contrabassoon_accent_stacc_PP_C3_RR2.opus
</region>

<region>
hikey=C1
hivel=45
lokey=B0
lovel=0
pitch_keycenter=C1
sample=Contrabassoon_accent_stacc_PP_C2_RR2.opus
</region>

<region>
hikey=A#2
hivel=45
lokey=A2
lovel=0
pitch_keycenter=A#2
sample=Contrabassoon_accent_stacc_PP_A#3_RR2.opus
</region>

<region>
hikey=A#1
hivel=45
lokey=A1
lovel=0
pitch_keycenter=A#1
sample=Contrabassoon_accent_stacc_PP_A#2_RR2.opus
</region>

<region>
hikey=A#0
hivel=45
lokey=A0
lovel=0
pitch_keycenter=A#0
sample=Contrabassoon_accent_stacc_PP_A#1_RR2.opus
</region>

<region>
hikey=G#2
hivel=90
lokey=G2
lovel=46
pitch_keycenter=G#2
sample=Contrabassoon_accent_stacc_MF_G#3_RR2.opus
</region>

<region>
hikey=G#1
hivel=90
lokey=G1
lovel=46
pitch_keycenter=G#1
sample=Contrabassoon_accent_stacc_MF_G#2_RR2.opus
</region>

<region>
hikey=F#2
hivel=90
lokey=F2
lovel=46
pitch_keycenter=F#2
sample=Contrabassoon_accent_stacc_MF_F#3_RR2.opus
</region>

<region>
hikey=F#1
hivel=90
lokey=F1
lovel=46
pitch_keycenter=F#1
sample=Contrabassoon_accent_stacc_MF_F#2_RR2.opus
</region>

<region>
hikey=E2
hivel=90
lokey=D#2
lovel=46
pitch_keycenter=E2
sample=Contrabassoon_accent_stacc_MF_E3_RR2.opus
</region>

<region>
hikey=E1
hivel=90
lokey=D#1
lovel=46
pitch_keycenter=E1
sample=Contrabassoon_accent_stacc_MF_E2_RR2.opus
</region>

<region>
hikey=D#4
hivel=90
lokey=C#3
lovel=46
pitch_keycenter=D3
sample=Contrabassoon_accent_stacc_MF_D4_RR2.opus
</region>

<region>
hikey=D2
hivel=90
lokey=C#2
lovel=46
pitch_keycenter=D2
sample=Contrabassoon_accent_stacc_MF_D3_RR2.opus
</region>

<region>
hikey=D1
hivel=90
lokey=C#1
lovel=46
pitch_keycenter=D1
sample=Contrabassoon_accent_stacc_MF_D2_RR2.opus
</region>

<region>
hikey=C3
hivel=90
lokey=B2
lovel=46
pitch_keycenter=C3
sample=Contrabassoon_accent_stacc_MF_C4_RR2.opus
</region>

<region>
hikey=C2
hivel=90
lokey=B1
lovel=46
pitch_keycenter=C2
sample=Contrabassoon_accent_stacc_MF_C3_RR2.opus
</region>

<region>
hikey=C1
hivel=90
lokey=B0
lovel=46
pitch_keycenter=C1
sample=Contrabassoon_accent_stacc_MF_C2_RR2.opus
</region>

<region>
hikey=A#2
hivel=90
lokey=A2
lovel=46
pitch_keycenter=A#2
sample=Contrabassoon_accent_stacc_MF_A#3_RR2.opus
</region>

<region>
hikey=A#1
hivel=90
lokey=A1
lovel=46
pitch_keycenter=A#1
sample=Contrabassoon_accent_stacc_MF_A#2_RR2.opus
</region>

<region>
hikey=A#0
hivel=90
lokey=A0
lovel=46
pitch_keycenter=A#0
sample=Contrabassoon_accent_stacc_MF_A#1_RR2.opus
</region>

<region>
hikey=G#2
hivel=127
lokey=G2
lovel=91
pitch_keycenter=G#2
sample=Contrabassoon_accent_stacc_FF_G#3_RR2.opus
</region>

<region>
hikey=G#1
hivel=127
lokey=G1
lovel=91
pitch_keycenter=G#1
sample=Contrabassoon_accent_stacc_FF_G#2_RR2.opus
</region>

<region>
hikey=F#2
hivel=127
lokey=F2
lovel=91
pitch_keycenter=F#2
sample=Contrabassoon_accent_stacc_FF_F#3_RR2.opus
</region>

<region>
hikey=F#1
hivel=127
lokey=F1
lovel=91
pitch_keycenter=F#1
sample=Contrabassoon_accent_stacc_FF_F#2_RR2.opus
</region>

<region>
hikey=E2
hivel=127
lokey=D#2
lovel=91
pitch_keycenter=E2
sample=Contrabassoon_accent_stacc_FF_E3_RR2.opus
</region>

<region>
hikey=E1
hivel=127
lokey=D#1
lovel=91
pitch_keycenter=E1
sample=Contrabassoon_accent_stacc_FF_E2_RR2.opus
</region>

<region>
hikey=D#4
hivel=127
lokey=C#3
lovel=91
pitch_keycenter=D3
sample=Contrabassoon_accent_stacc_FF_D4_RR2.opus
</region>

<region>
hikey=D2
hivel=127
lokey=C#2
lovel=91
pitch_keycenter=D2
sample=Contrabassoon_accent_stacc_FF_D3_RR2.opus
</region>

<region>
hikey=D1
hivel=127
lokey=C#1
lovel=91
pitch_keycenter=D1
sample=Contrabassoon_accent_stacc_FF_D2_RR2.opus
</region>

<region>
hikey=C3
hivel=127
lokey=B2
lovel=91
pitch_keycenter=C3
sample=Contrabassoon_accent_stacc_FF_C4_RR2.opus
</region>

<region>
hikey=C2
hivel=127
lokey=B1
lovel=91
pitch_keycenter=C2
sample=Contrabassoon_accent_stacc_FF_C3_RR2.opus
</region>

<region>
hikey=C1
hivel=127
lokey=B0
lovel=91
pitch_keycenter=C1
sample=Contrabassoon_accent_stacc_FF_C2_RR2.opus
</region>

<region>
hikey=A#2
hivel=127
lokey=A2
lovel=91
pitch_keycenter=A#2
sample=Contrabassoon_accent_stacc_FF_A#3_RR2.opus
</region>

<region>
hikey=A#1
hivel=127
lokey=A1
lovel=91
pitch_keycenter=A#1
sample=Contrabassoon_accent_stacc_FF_A#2_RR2.opus
</region>

<region>
hikey=A#0
hivel=127
lokey=A0
lovel=91
pitch_keycenter=A#0
sample=Contrabassoon_accent_stacc_FF_A#1_RR2.opus
</region>
</group>

<group>
group_label=RR3
seq_length=4
seq_position=3

<region>
hikey=G#2
hivel=45
lokey=G2
lovel=0
pitch_keycenter=G#2
sample=Contrabassoon_accent_stacc_PP_G#3_RR3.opus
</region>

<region>
hikey=G#1
hivel=45
lokey=G1
lovel=0
pitch_keycenter=G#1
sample=Contrabassoon_accent_stacc_PP_G#2_RR3.opus
</region>

<region>
hikey=F#2
hivel=45
lokey=F2
lovel=0
pitch_keycenter=F#2
sample=Contrabassoon_accent_stacc_PP_F#3_RR3.opus
</region>

<region>
hikey=F#1
hivel=45
lokey=F1
lovel=0
pitch_keycenter=F#1
sample=Contrabassoon_accent_stacc_PP_F#2_RR3.opus
</region>

<region>
hikey=E2
hivel=45
lokey=D#2
lovel=0
pitch_keycenter=E2
sample=Contrabassoon_accent_stacc_PP_E3_RR3.opus
</region>

<region>
hikey=E1
hivel=45
lokey=D#1
lovel=0
pitch_keycenter=E1
sample=Contrabassoon_accent_stacc_PP_E2_RR3.opus
</region>

<region>
hikey=D#4
hivel=45
lokey=C#3
lovel=0
pitch_keycenter=D3
sample=Contrabassoon_accent_stacc_PP_D4_RR3.opus
</region>

<region>
hikey=D2
hivel=45
lokey=C#2
lovel=0
pitch_keycenter=D2
sample=Contrabassoon_accent_stacc_PP_D3_RR3.opus
</region>

<region>
hikey=D1
hivel=45
lokey=C#1
lovel=0
pitch_keycenter=D1
sample=Contrabassoon_accent_stacc_PP_D2_RR3.opus
</region>

<region>
hikey=C3
hivel=45
lokey=B2
lovel=0
pitch_keycenter=C3
sample=Contrabassoon_accent_stacc_PP_C4_RR3.opus
</region>

<region>
hikey=C2
hivel=45
lokey=B1
lovel=0
pitch_keycenter=C2
sample=Contrabassoon_accent_stacc_PP_C3_RR3.opus
</region>

<region>
hikey=C1
hivel=45
lokey=B0
lovel=0
pitch_keycenter=C1
sample=Contrabassoon_accent_stacc_PP_C2_RR3.opus
</region>

<region>
hikey=A#2
hivel=45
lokey=A2
lovel=0
pitch_keycenter=A#2
sample=Contrabassoon_accent_stacc_PP_A#3_RR3.opus
</region>

<region>
hikey=A#1
hivel=45
lokey=A1
lovel=0
pitch_keycenter=A#1
sample=Contrabassoon_accent_stacc_PP_A#2_RR3.opus
</region>

<region>
hikey=A#0
hivel=45
lokey=A0
lovel=0
pitch_keycenter=A#0
sample=Contrabassoon_accent_stacc_PP_A#1_RR3.opus
</region>

<region>
hikey=G#2
hivel=90
lokey=G2
lovel=46
pitch_keycenter=G#2
sample=Contrabassoon_accent_stacc_MF_G#3_RR3.opus
</region>

<region>
hikey=G#1
hivel=90
lokey=G1
lovel=46
pitch_keycenter=G#1
sample=Contrabassoon_accent_stacc_MF_G#2_RR3.opus
</region>

<region>
hikey=F#2
hivel=90
lokey=F2
lovel=46
pitch_keycenter=F#2
sample=Contrabassoon_accent_stacc_MF_F#3_RR3.opus
</region>

<region>
hikey=F#1
hivel=90
lokey=F1
lovel=46
pitch_keycenter=F#1
sample=Contrabassoon_accent_stacc_MF_F#2_RR3.opus
</region>

<region>
hikey=E2
hivel=90
lokey=D#2
lovel=46
pitch_keycenter=E2
sample=Contrabassoon_accent_stacc_MF_E3_RR3.opus
</region>

<region>
hikey=E1
hivel=90
lokey=D#1
lovel=46
pitch_keycenter=E1
sample=Contrabassoon_accent_stacc_MF_E2_RR3.opus
</region>

<region>
hikey=D#4
hivel=90
lokey=C#3
lovel=46
pitch_keycenter=D3
sample=Contrabassoon_accent_stacc_MF_D4_RR3.opus
</region>

<region>
hikey=D2
hivel=90
lokey=C#2
lovel=46
pitch_keycenter=D2
sample=Contrabassoon_accent_stacc_MF_D3_RR3.opus
</region>

<region>
hikey=D1
hivel=90
lokey=C#1
lovel=46
pitch_keycenter=D1
sample=Contrabassoon_accent_stacc_MF_D2_RR3.opus
</region>

<region>
hikey=C3
hivel=90
lokey=B2
lovel=46
pitch_keycenter=C3
sample=Contrabassoon_accent_stacc_MF_C4_RR3.opus
</region>

<region>
hikey=C2
hivel=90
lokey=B1
lovel=46
pitch_keycenter=C2
sample=Contrabassoon_accent_stacc_MF_C3_RR3.opus
</region>

<region>
hikey=C1
hivel=90
lokey=B0
lovel=46
pitch_keycenter=C1
sample=Contrabassoon_accent_stacc_MF_C2_RR3.opus
</region>

<region>
hikey=A#2
hivel=90
lokey=A2
lovel=46
pitch_keycenter=A#2
sample=Contrabassoon_accent_stacc_MF_A#3_RR3.opus
</region>

<region>
hikey=A#1
hivel=90
lokey=A1
lovel=46
pitch_keycenter=A#1
sample=Contrabassoon_accent_stacc_MF_A#2_RR3.opus
</region>

<region>
hikey=A#0
hivel=90
lokey=A0
lovel=46
pitch_keycenter=A#0
sample=Contrabassoon_accent_stacc_MF_A#1_RR3.opus
</region>

<region>
hikey=G#2
hivel=127
lokey=G2
lovel=91
pitch_keycenter=G#2
sample=Contrabassoon_accent_stacc_FF_G#3_RR3.opus
</region>

<region>
hikey=G#1
hivel=127
lokey=G1
lovel=91
pitch_keycenter=G#1
sample=Contrabassoon_accent_stacc_FF_G#2_RR3.opus
</region>

<region>
hikey=F#2
hivel=127
lokey=F2
lovel=91
pitch_keycenter=F#2
sample=Contrabassoon_accent_stacc_FF_F#3_RR3.opus
</region>

<region>
hikey=F#1
hivel=127
lokey=F1
lovel=91
pitch_keycenter=F#1
sample=Contrabassoon_accent_stacc_FF_F#2_RR3.opus
</region>

<region>
hikey=E2
hivel=127
lokey=D#2
lovel=91
pitch_keycenter=E2
sample=Contrabassoon_accent_stacc_FF_E3_RR3.opus
</region>

<region>
hikey=E1
hivel=127
lokey=D#1
lovel=91
pitch_keycenter=E1
sample=Contrabassoon_accent_stacc_FF_E2_RR3.opus
</region>

<region>
hikey=D#4
hivel=127
lokey=C#3
lovel=91
pitch_keycenter=D3
sample=Contrabassoon_accent_stacc_FF_D4_RR3.opus
</region>

<region>
hikey=D2
hivel=127
lokey=C#2
lovel=91
pitch_keycenter=D2
sample=Contrabassoon_accent_stacc_FF_D3_RR3.opus
</region>

<region>
hikey=D1
hivel=127
lokey=C#1
lovel=91
pitch_keycenter=D1
sample=Contrabassoon_accent_stacc_FF_D2_RR3.opus
</region>

<region>
hikey=C3
hivel=127
lokey=B2
lovel=91
pitch_keycenter=C3
sample=Contrabassoon_accent_stacc_FF_C4_RR3.opus
</region>

<region>
hikey=C2
hivel=127
lokey=B1
lovel=91
pitch_keycenter=C2
sample=Contrabassoon_accent_stacc_FF_C3_RR3.opus
</region>

<region>
hikey=C1
hivel=127
lokey=B0
lovel=91
pitch_keycenter=C1
sample=Contrabassoon_accent_stacc_FF_C2_RR3.opus
</region>

<region>
hikey=A#2
hivel=127
lokey=A2
lovel=91
pitch_keycenter=A#2
sample=Contrabassoon_accent_stacc_FF_A#3_RR3.opus
</region>

<region>
hikey=A#1
hivel=127
lokey=A1
lovel=91
pitch_keycenter=A#1
sample=Contrabassoon_accent_stacc_FF_A#2_RR3.opus
</region>

<region>
hikey=A#0
hivel=127
lokey=A0
lovel=91
pitch_keycenter=A#0
sample=Contrabassoon_accent_stacc_FF_A#1_RR3.opus
</region>
</group>

<group>
group_label=RR4
seq_length=4
seq_position=4

<region>
hikey=G#2
hivel=45
lokey=G2
lovel=0
pitch_keycenter=G#2
sample=Contrabassoon_accent_stacc_PP_G#3_RR4.opus
</region>

<region>
hikey=G#1
hivel=45
lokey=G1
lovel=0
pitch_keycenter=G#1
sample=Contrabassoon_accent_stacc_PP_G#2_RR4.opus
</region>

<region>
hikey=F#2
hivel=45
lokey=F2
lovel=0
pitch_keycenter=F#2
sample=Contrabassoon_accent_stacc_PP_F#3_RR4.opus
</region>

<region>
hikey=F#1
hivel=45
lokey=F1
lovel=0
pitch_keycenter=F#1
sample=Contrabassoon_accent_stacc_PP_F#2_RR4.opus
</region>

<region>
hikey=E2
hivel=45
lokey=D#2
lovel=0
pitch_keycenter=E2
sample=Contrabassoon_accent_stacc_PP_E3_RR4.opus
</region>

<region>
hikey=E1
hivel=45
lokey=D#1
lovel=0
pitch_keycenter=E1
sample=Contrabassoon_accent_stacc_PP_E2_RR4.opus
</region>

<region>
hikey=D#4
hivel=45
lokey=C#3
lovel=0
pitch_keycenter=D3
sample=Contrabassoon_accent_stacc_PP_D4_RR4.opus
</region>

<region>
hikey=D2
hivel=45
lokey=C#2
lovel=0
pitch_keycenter=D2
sample=Contrabassoon_accent_stacc_PP_D3_RR4.opus
</region>

<region>
hikey=D1
hivel=45
lokey=C#1
lovel=0
pitch_keycenter=D1
sample=Contrabassoon_accent_stacc_PP_D2_RR4.opus
</region>

<region>
hikey=C3
hivel=45
lokey=B2
lovel=0
pitch_keycenter=C3
sample=Contrabassoon_accent_stacc_PP_C4_RR4.opus
</region>

<region>
hikey=C2
hivel=45
lokey=B1
lovel=0
pitch_keycenter=C2
sample=Contrabassoon_accent_stacc_PP_C3_RR4.opus
</region>

<region>
hikey=C1
hivel=45
lokey=B0
lovel=0
pitch_keycenter=C1
sample=Contrabassoon_accent_stacc_PP_C2_RR4.opus
</region>

<region>
hikey=A#2
hivel=45
lokey=A2
lovel=0
pitch_keycenter=A#2
sample=Contrabassoon_accent_stacc_PP_A#3_RR4.opus
</region>

<region>
hikey=A#1
hivel=45
lokey=A1
lovel=0
pitch_keycenter=A#1
sample=Contrabassoon_accent_stacc_PP_A#2_RR4.opus
</region>

<region>
hikey=A#0
hivel=45
lokey=A0
lovel=0
pitch_keycenter=A#0
sample=Contrabassoon_accent_stacc_PP_A#1_RR4.opus
</region>

<region>
hikey=G#2
hivel=90
lokey=G2
lovel=46
pitch_keycenter=G#2
sample=Contrabassoon_accent_stacc_MF_G#3_RR4.opus
</region>

<region>
hikey=G#1
hivel=90
lokey=G1
lovel=46
pitch_keycenter=G#1
sample=Contrabassoon_accent_stacc_MF_G#2_RR4.opus
</region>

<region>
hikey=F#2
hivel=90
lokey=F2
lovel=46
pitch_keycenter=F#2
sample=Contrabassoon_accent_stacc_MF_F#3_RR4.opus
</region>

<region>
hikey=F#1
hivel=90
lokey=F1
lovel=46
pitch_keycenter=F#1
sample=Contrabassoon_accent_stacc_MF_F#2_RR4.opus
</region>

<region>
hikey=E2
hivel=90
lokey=D#2
lovel=46
pitch_keycenter=E2
sample=Contrabassoon_accent_stacc_MF_E3_RR4.opus
</region>

<region>
hikey=E1
hivel=90
lokey=D#1
lovel=46
pitch_keycenter=E1
sample=Contrabassoon_accent_stacc_MF_E2_RR4.opus
</region>

<region>
hikey=D#4
hivel=90
lokey=C#3
lovel=46
pitch_keycenter=D3
sample=Contrabassoon_accent_stacc_MF_D4_RR4.opus
</region>

<region>
hikey=D2
hivel=90
lokey=C#2
lovel=46
pitch_keycenter=D2
sample=Contrabassoon_accent_stacc_MF_D3_RR4.opus
</region>

<region>
hikey=D1
hivel=90
lokey=C#1
lovel=46
pitch_keycenter=D1
sample=Contrabassoon_accent_stacc_MF_D2_RR4.opus
</region>

<region>
hikey=C3
hivel=90
lokey=B2
lovel=46
pitch_keycenter=C3
sample=Contrabassoon_accent_stacc_MF_C4_RR4.opus
</region>

<region>
hikey=C2
hivel=90
lokey=B1
lovel=46
pitch_keycenter=C2
sample=Contrabassoon_accent_stacc_MF_C3_RR4.opus
</region>

<region>
hikey=C1
hivel=90
lokey=B0
lovel=46
pitch_keycenter=C1
sample=Contrabassoon_accent_stacc_MF_C2_RR4.opus
</region>

<region>
hikey=A#2
hivel=90
lokey=A2
lovel=46
pitch_keycenter=A#2
sample=Contrabassoon_accent_stacc_MF_A#3_RR4.opus
</region>

<region>
hikey=A#1
hivel=90
lokey=A1
lovel=46
pitch_keycenter=A#1
sample=Contrabassoon_accent_stacc_MF_A#2_RR4.opus
</region>

<region>
hikey=A#0
hivel=90
lokey=A0
lovel=46
pitch_keycenter=A#0
sample=Contrabassoon_accent_stacc_MF_A#1_RR4.opus
</region>

<region>
hikey=G#2
hivel=127
lokey=G2
lovel=91
pitch_keycenter=G#2
sample=Contrabassoon_accent_stacc_FF_G#3_RR4.opus
</region>

<region>
hikey=G#1
hivel=127
lokey=G1
lovel=91
pitch_keycenter=G#1
sample=Contrabassoon_accent_stacc_FF_G#2_RR4.opus
</region>

<region>
hikey=F#2
hivel=127
lokey=F2
lovel=91
pitch_keycenter=F#2
sample=Contrabassoon_accent_stacc_FF_F#3_RR4.opus
</region>

<region>
hikey=F#1
hivel=127
lokey=F1
lovel=91
pitch_keycenter=F#1
sample=Contrabassoon_accent_stacc_FF_F#2_RR4.opus
</region>

<region>
hikey=E2
hivel=127
lokey=D#2
lovel=91
pitch_keycenter=E2
sample=Contrabassoon_accent_stacc_FF_E3_RR4.opus
</region>

<region>
hikey=E1
hivel=127
lokey=D#1
lovel=91
pitch_keycenter=E1
sample=Contrabassoon_accent_stacc_FF_E2_RR4.opus
</region>

<region>
hikey=D#4
hivel=127
lokey=C#3
lovel=91
pitch_keycenter=D3
sample=Contrabassoon_accent_stacc_FF_D4_RR4.opus
</region>

<region>
hikey=D2
hivel=127
lokey=C#2
lovel=91
pitch_keycenter=D2
sample=Contrabassoon_accent_stacc_FF_D3_RR4.opus
</region>

<region>
hikey=D1
hivel=127
lokey=C#1
lovel=91
pitch_keycenter=D1
sample=Contrabassoon_accent_stacc_FF_D2_RR4.opus
</region>

<region>
hikey=C3
hivel=127
lokey=B2
lovel=91
pitch_keycenter=C3
sample=Contrabassoon_accent_stacc_FF_C4_RR4.opus
</region>

<region>
hikey=C2
hivel=127
lokey=B1
lovel=91
pitch_keycenter=C2
sample=Contrabassoon_accent_stacc_FF_C3_RR4.opus
</region>

<region>
hikey=C1
hivel=127
lokey=B0
lovel=91
pitch_keycenter=C1
sample=Contrabassoon_accent_stacc_FF_C2_RR4.opus
</region>

<region>
hikey=A#2
hivel=127
lokey=A2
lovel=91
pitch_keycenter=A#2
sample=Contrabassoon_accent_stacc_FF_A#3_RR4.opus
</region>

<region>
hikey=A#1
hivel=127
lokey=A1
lovel=91
pitch_keycenter=A#1
sample=Contrabassoon_accent_stacc_FF_A#2_RR4.opus
</region>

<region>
hikey=A#0
hivel=127
lokey=A0
lovel=91
pitch_keycenter=A#0
sample=Contrabassoon_accent_stacc_FF_A#1_RR4.opus
</region>
</group>